<?xml version="1.0"?>
<svg xmlns="http://www.w3.org/2000/svg" xmlns:xlink="http://www.w3.org/1999/xlink" xmlns:svgjs="http://svgjs.com/svgjs" version="1.1" width="512" height="512" x="0" y="0" viewBox="0 0 74 74" style="enable-background:new 0 0 512 512" xml:space="preserve" class=""><g><path xmlns="http://www.w3.org/2000/svg" d="m26.693 52.451a7.569 7.569 0 0 1 -15.139 0z" fill="#e53170" data-original="#707583" style="" class=""/><path xmlns="http://www.w3.org/2000/svg" d="m19.124 60.521a8.079 8.079 0 0 1 -8.069-8.069.5.5 0 0 1 .5-.5h15.138a.5.5 0 0 1 .5.5 8.079 8.079 0 0 1 -8.069 8.069zm-7.052-7.569a7.069 7.069 0 0 0 14.1 0z" fill="#000000" data-original="#323c6b" style="" class=""/><path xmlns="http://www.w3.org/2000/svg" d="m18.7 23.878h13.747a2.026 2.026 0 0 1 2.026 2.022v2.03h-17.8v-2.03a2.026 2.026 0 0 1 2.027-2.022z" fill="#9297ab" data-original="#9297ab" style="" class=""/><path xmlns="http://www.w3.org/2000/svg" d="m34.473 28.43h-17.8a.5.5 0 0 1 -.5-.5v-2.03a2.529 2.529 0 0 1 2.527-2.522h13.75a2.529 2.529 0 0 1 2.523 2.522v2.03a.5.5 0 0 1 -.5.5zm-17.3-1h16.8v-1.53a1.528 1.528 0 0 0 -1.526-1.526h-13.747a1.528 1.528 0 0 0 -1.528 1.526z" fill="#000000" data-original="#323c6b" style="" class=""/><path xmlns="http://www.w3.org/2000/svg" d="m64.02 41.125-6.847-17.808-5.7-1.666 1.831 11.9a4.415 4.415 0 0 1 -1.69 4.132l-6.5 4.969a4.2 4.2 0 0 1 -2.561.871h-5.408a5.775 5.775 0 0 1 -5.771-5.771v-2.645a4.208 4.208 0 0 1 .862-2.561 4.254 4.254 0 0 1 1.324-1.136 1.814 1.814 0 0 0 .913-1.6v-1.883h-16.527c-7.222 0-13.207 6.975-13.437 14.189v.1c-.077 3.492.316 8.844 2.8 10.236h42.164z" fill="#f25f4c" data-original="#fe7058" style="" class=""/><path xmlns="http://www.w3.org/2000/svg" d="m52.891 17.3-.491-1.72a1.875 1.875 0 0 0 -1.8-1.361h-1.689a1.12 1.12 0 0 1 -1.12-1.12 1.12 1.12 0 0 1 1.12-1.12h2.994a2.213 2.213 0 0 1 2.128 1.607l.807 2.767z" fill="#84879c" data-original="#84879c" style="" class=""/><g xmlns="http://www.w3.org/2000/svg" fill="#323c6b"><path d="m52.891 17.8a.5.5 0 0 1 -.481-.363l-.49-1.722a1.381 1.381 0 0 0 -1.322-1h-1.687a1.62 1.62 0 1 1 0-3.24h2.994a2.725 2.725 0 0 1 2.609 1.97l.806 2.764a.5.5 0 0 1 -.261.59l-1.95.949a.5.5 0 0 1 -.218.052zm-3.98-5.323a.62.62 0 1 0 0 1.24h1.689a2.385 2.385 0 0 1 2.284 1.724l.327 1.148 1.034-.5-.689-2.362a1.722 1.722 0 0 0 -1.648-1.247z" fill="#000000" data-original="#323c6b" style="" class=""/><path d="m1.538 44.875a.5.5 0 0 1 -.5-.483l-.015-.366c-.01-.253-.023-.505-.023-.774a.5.5 0 0 1 .5-.5.5.5 0 0 1 .5.5c0 .255.012.494.022.733l.015.376a.5.5 0 0 1 -.482.517z" fill="#000000" data-original="#323c6b" style="" class=""/><path d="m1.642 41.208h-.056a.5.5 0 0 1 -.442-.552 18.771 18.771 0 0 1 2.936-8.123.5.5 0 0 1 .838.546 17.758 17.758 0 0 0 -2.78 7.687.5.5 0 0 1 -.496.442z" fill="#000000" data-original="#323c6b" style="" class=""/><path d="m62.3 28.781a.5.5 0 0 1 -.467-.32l-.316-.823a.5.5 0 0 1 .934-.359l.316.823a.5.5 0 0 1 -.287.646.506.506 0 0 1 -.18.033z" fill="#000000" data-original="#323c6b" style="" class=""/><path d="m65.913 38.188a.5.5 0 0 1 -.467-.321l-2.812-7.312a.5.5 0 0 1 .934-.358l2.812 7.313a.5.5 0 0 1 -.467.679z" fill="#000000" data-original="#323c6b" style="" class=""/></g><path xmlns="http://www.w3.org/2000/svg" d="m37.15 44.052h-2.99a5.772 5.772 0 0 1 -5.77-5.77v-3.172a4.22 4.22 0 0 1 .86-2.56 4.078 4.078 0 0 1 1.33-1.14 1.817 1.817 0 0 0 .91-1.6v-1.88h2.98v1.88a1.817 1.817 0 0 1 -.91 1.6 4.246 4.246 0 0 0 -2.19 3.7v3.172c.005 2.358 2.59 5.77 5.78 5.77z" fill="#f25f4c" data-original="#ea6453" style="" class=""/><path xmlns="http://www.w3.org/2000/svg" d="m63.972 41.167.048-.037-6.85-17.81-2.825-.96 7.141 18.531z" fill="#f25f4c" data-original="#ea6453" style="" class=""/><path xmlns="http://www.w3.org/2000/svg" d="m7.309 52.451a11.815 11.815 0 1 1 23.63 0z" fill="#f25f4c" data-original="#fe7058" style="" class=""/><path xmlns="http://www.w3.org/2000/svg" d="m30.94 52.45h-2.81a11.818 11.818 0 0 0 -10.41-11.72 10.853 10.853 0 0 1 1.4-.09 11.828 11.828 0 0 1 11.82 11.81z" fill="#f25f4c" data-original="#ea6453" style="" class=""/><path xmlns="http://www.w3.org/2000/svg" d="m22.908 52.451a3.785 3.785 0 0 1 -7.569 0z" fill="#bbbbcd" data-original="#bbbbcd" style="" class=""/><path xmlns="http://www.w3.org/2000/svg" d="m19.124 56.736a4.289 4.289 0 0 1 -4.285-4.285.5.5 0 0 1 .5-.5h7.569a.5.5 0 0 1 .5.5 4.289 4.289 0 0 1 -4.284 4.285zm-3.247-3.785a3.285 3.285 0 0 0 6.493 0z" fill="#000000" data-original="#323c6b" style="" class=""/><path xmlns="http://www.w3.org/2000/svg" d="m26.375 33.559h-9.125a.5.5 0 0 1 0-1h9.125a.5.5 0 0 1 0 1z" fill="#000000" data-original="#323c6b" style="" class=""/><path xmlns="http://www.w3.org/2000/svg" d="m25.062 36.621h-7.812a.5.5 0 0 1 0-1h7.813a.5.5 0 0 1 0 1z" fill="#000000" data-original="#323c6b" style="" class=""/><path xmlns="http://www.w3.org/2000/svg" d="m49.473 52.954h-42.164a.5.5 0 0 1 -.329-.123c-2.116-1.845-3.088-5.32-2.972-10.624v-.107c.25-7.816 6.762-14.672 13.937-14.672h16.528a.5.5 0 0 1 .5.5v1.878a2.306 2.306 0 0 1 -1.173 2.043 3.693 3.693 0 0 0 -1.925 3.258v2.646a5.277 5.277 0 0 0 5.271 5.271h5.413a3.68 3.68 0 0 0 2.257-.768l6.5-4.969a3.914 3.914 0 0 0 1.5-3.666l-1.83-11.9a.5.5 0 0 1 .634-.556l5.7 1.666a.5.5 0 0 1 .327.3l6.847 17.809a.5.5 0 0 1 -.16.574l-14.554 11.335a.5.5 0 0 1 -.307.105zm-41.972-1h41.799l14.119-11-6.619-17.226-4.707-1.376 1.707 11.125a4.917 4.917 0 0 1 -1.882 4.607l-6.5 4.967a4.733 4.733 0 0 1 -2.865.974h-5.407a6.278 6.278 0 0 1 -6.271-6.271v-2.647a4.7 4.7 0 0 1 2.442-4.134 1.31 1.31 0 0 0 .656-1.168v-1.378h-16.027c-6.659 0-12.7 6.4-12.938 13.7-.108 4.897.734 8.173 2.492 9.827z" fill="#000000" data-original="#323c6b" style="" class=""/><path xmlns="http://www.w3.org/2000/svg" d="m68.254 52.451a7.569 7.569 0 0 1 -15.139 0z" fill="#e53170" data-original="#707583" style="" class=""/><path xmlns="http://www.w3.org/2000/svg" d="m60.685 60.521a8.079 8.079 0 0 1 -8.069-8.069.5.5 0 0 1 .5-.5h15.138a.5.5 0 0 1 .5.5 8.079 8.079 0 0 1 -8.069 8.069zm-7.052-7.569a7.069 7.069 0 0 0 14.1 0z" fill="#000000" data-original="#323c6b" style="" class=""/><path xmlns="http://www.w3.org/2000/svg" d="m64.469 52.451a3.785 3.785 0 0 1 -7.569 0z" fill="#bbbbcd" data-original="#bbbbcd" style="" class=""/><path xmlns="http://www.w3.org/2000/svg" d="m60.685 56.736a4.289 4.289 0 0 1 -4.285-4.285.5.5 0 0 1 .5-.5h7.569a.5.5 0 0 1 .5.5 4.289 4.289 0 0 1 -4.284 4.285zm-3.247-3.785a3.285 3.285 0 0 0 6.493 0z" fill="#000000" data-original="#323c6b" style="" class=""/><path xmlns="http://www.w3.org/2000/svg" d="m48.87 52.451a11.815 11.815 0 1 1 23.63 0z" fill="#f25f4c" data-original="#fe7058" style="" class=""/><path xmlns="http://www.w3.org/2000/svg" d="m61.375 40.684c4.725 1.546 8.145 6.535 8.145 11.766h2.98a11.813 11.813 0 0 0 -11.125-11.766z" fill="#f25f4c" data-original="#ea6453" style="" class=""/><path xmlns="http://www.w3.org/2000/svg" d="m72.5 52.951h-23.63a.5.5 0 0 1 -.5-.5 12.315 12.315 0 1 1 24.63 0 .5.5 0 0 1 -.5.5zm-23.119-1h22.608a11.315 11.315 0 0 0 -22.608 0z" fill="#000000" data-original="#323c6b" style="" class=""/><path xmlns="http://www.w3.org/2000/svg" d="m61.253 15.224-7.793 1.118a3.247 3.247 0 0 0 0 6.419l7.793 1.117z" fill="#f25f4c" data-original="#fe7058" style="" class=""/><path xmlns="http://www.w3.org/2000/svg" d="m61.253 15.22v1.91l-7.793 1.12a3.239 3.239 0 0 0 -2.61 2.25 3 3 0 0 1 -.15-.95 3.256 3.256 0 0 1 2.76-3.21z" fill="#f25f4c" data-original="#ea6453" style="" class=""/><path xmlns="http://www.w3.org/2000/svg" d="m64.02 17.118v4.867a1.893 1.893 0 0 1 -1.893 1.893h-.874v-8.654h.874a1.893 1.893 0 0 1 1.893 1.894z" fill="#eeefee" data-original="#eeefee" style="" class=""/><path xmlns="http://www.w3.org/2000/svg" d="m62.127 24.378h-.874a.5.5 0 0 1 -.5-.5v-8.654a.5.5 0 0 1 .5-.5h.874a2.4 2.4 0 0 1 2.393 2.394v4.867a2.4 2.4 0 0 1 -2.393 2.393zm-.374-1h.374a1.4 1.4 0 0 0 1.393-1.394v-4.866a1.4 1.4 0 0 0 -1.393-1.394h-.374z" fill="#000000" data-original="#323c6b" style="" class=""/><path xmlns="http://www.w3.org/2000/svg" d="m61.253 24.378a.493.493 0 0 1 -.071 0l-7.793-1.118a3.747 3.747 0 0 1 0-7.408l7.8-1.119a.5.5 0 0 1 .571.5v8.654a.5.5 0 0 1 -.5.5zm-.5-8.578-7.223 1.037a2.747 2.747 0 0 0 0 5.43l7.223 1.033z" fill="#000000" data-original="#323c6b" style="" class=""/><path xmlns="http://www.w3.org/2000/svg" d="m30.938 52.951h-23.629a.5.5 0 0 1 -.5-.5 12.315 12.315 0 1 1 24.63 0 .5.5 0 0 1 -.501.5zm-23.119-1h22.609a11.315 11.315 0 0 0 -22.608 0z" fill="#000000" data-original="#323c6b" style="" class=""/><path xmlns="http://www.w3.org/2000/svg" d="m43.583 47.125h-2.333a.65.65 0 0 1 0-1.3h2.333a3.531 3.531 0 0 0 2.166-.736l2.726-2.089a.65.65 0 0 1 .79 1.032l-2.726 2.084a4.883 4.883 0 0 1 -2.956 1.009z" fill="#ffffff" data-original="#ffffff" style="" class=""/><path xmlns="http://www.w3.org/2000/svg" d="m50.926 42.6a.65.65 0 0 1 -.4-1.166l.656-.5a.65.65 0 0 1 .79 1.032l-.656.5a.647.647 0 0 1 -.39.134z" fill="#ffffff" data-original="#ffffff" style="" class=""/></g></svg>
