<?xml version="1.0"?>
<svg xmlns="http://www.w3.org/2000/svg" xmlns:xlink="http://www.w3.org/1999/xlink" xmlns:svgjs="http://svgjs.com/svgjs" version="1.1" width="512" height="512" x="0" y="0" viewBox="0 0 512 512" style="enable-background:new 0 0 512 512" xml:space="preserve" class=""><g><path xmlns="http://www.w3.org/2000/svg" d="m366.933594 162.132812v230.402344c0 61.265625-49.667969 110.929688-110.933594 110.929688-4.277344.007812-8.554688-.25-12.800781-.765625-55.929688-6.496094-98.121094-53.859375-98.132813-110.164063v-230.402344c.015625-4.707031 3.828125-8.519531 8.535156-8.53125h204.796876c4.707031.011719 8.519531 3.824219 8.535156 8.53125zm0 0" fill="#14ad44" data-original="#ad1457" style="" class=""/><path xmlns="http://www.w3.org/2000/svg" d="m341.332031 162.132812v230.402344c-.011719 56.304688-42.203125 103.667969-98.132812 110.164063-55.929688-6.496094-98.121094-53.859375-98.132813-110.164063v-230.402344c.015625-4.707031 3.828125-8.519531 8.535156-8.53125h179.199219c4.707031.011719 8.519531 3.824219 8.53125 8.53125zm0 0" fill="#1ee983" data-original="#e91e63" style="" class=""/><path xmlns="http://www.w3.org/2000/svg" d="m341.332031 25.601562v128h-170.664062v-128c.027343-9.414062 7.652343-17.039062 17.066406-17.066406h136.53125c9.414063.027344 17.039063 7.652344 17.066406 17.066406zm0 0" fill="#707070" data-original="#707070" style=""/><path xmlns="http://www.w3.org/2000/svg" d="m315.734375 25.601562v128h-145.066406v-128c.027343-9.414062 7.652343-17.039062 17.066406-17.066406h110.933594c9.414062.027344 17.039062 7.652344 17.066406 17.066406zm0 0" fill="#9e9e9e" data-original="#9e9e9e" style="" class=""/><path xmlns="http://www.w3.org/2000/svg" d="m238.933594 51.199219v25.601562c0 4.710938-3.820313 8.53125-8.535156 8.53125h-17.066407c-4.710937 0-8.53125-3.820312-8.53125-8.53125v-25.601562zm0 0" fill="#cfd8dc" data-original="#cfd8dc" style="" class=""/><path xmlns="http://www.w3.org/2000/svg" d="m307.199219 51.199219v25.601562c0 4.710938-3.820313 8.53125-8.53125 8.53125h-17.066407c-4.714843 0-8.535156-3.820312-8.535156-8.53125v-25.601562zm0 0" fill="#cfd8dc" data-original="#cfd8dc" style="" class=""/><path xmlns="http://www.w3.org/2000/svg" d="m221.867188 307.199219c0 14.140625-11.460938 25.601562-25.601563 25.601562-14.136719 0-25.597656-11.460937-25.597656-25.601562 0-14.136719 11.460937-25.597657 25.597656-25.597657 14.140625 0 25.601563 11.460938 25.601563 25.597657zm0 0" fill="#2c2f38" data-original="#2c2f38" style="" class=""/><path xmlns="http://www.w3.org/2000/svg" d="m213.332031 307.199219c0 9.425781-7.640625 17.066406-17.066406 17.066406s-17.066406-7.640625-17.066406-17.066406 7.640625-17.066407 17.066406-17.066407 17.066406 7.640626 17.066406 17.066407zm0 0" fill="#ffffff" data-original="#ffffff" style=""/><path xmlns="http://www.w3.org/2000/svg" d="m341.332031 307.199219c0 14.140625-11.460937 25.601562-25.597656 25.601562-14.140625 0-25.601563-11.460937-25.601563-25.601562 0-14.136719 11.460938-25.597657 25.601563-25.597657 14.136719 0 25.597656 11.460938 25.597656 25.597657zm0 0" fill="#2c2f38" data-original="#2c2f38" style="" class=""/><path xmlns="http://www.w3.org/2000/svg" d="m332.800781 307.199219c0 9.425781-7.640625 17.066406-17.066406 17.066406s-17.066406-7.640625-17.066406-17.066406 7.640625-17.066407 17.066406-17.066407 17.066406 7.640626 17.066406 17.066407zm0 0" fill="#ffffff" data-original="#ffffff" style=""/><path xmlns="http://www.w3.org/2000/svg" d="m324.265625 389.6875c0 44.035156-30.605469 79.644531-68.265625 79.644531s-68.265625-35.609375-68.265625-79.644531c-.003906-7.671875.953125-15.316406 2.84375-22.753906h130.84375c1.890625 7.4375 2.847656 15.082031 2.84375 22.753906zm0 0" fill="#37474f" data-original="#37474f" style="" class=""/><path xmlns="http://www.w3.org/2000/svg" d="m299.519531 450.988281c-11.441406 11.730469-27.132812 18.34375-43.519531 18.34375s-32.078125-6.613281-43.519531-18.34375c9.300781-15.113281 25.773437-24.320312 43.519531-24.320312s34.21875 9.207031 43.519531 24.320312zm0 0" fill="#ef314c" data-original="#ef314c" style="" class=""/><path xmlns="http://www.w3.org/2000/svg" d="m324.265625 389.71875c0 .9375 0 1.875-.085937 2.816406h-136.359376c-.085937-.941406-.085937-1.878906-.085937-2.816406 0-7.683594.945313-15.335938 2.816406-22.785156h130.898438c1.871093 7.449218 2.816406 15.101562 2.816406 22.785156zm0 0" fill="#ffffff" data-original="#ffffff" style=""/><path xmlns="http://www.w3.org/2000/svg" d="m51.199219 512h-42.664063c-4.714844 0-8.535156-3.820312-8.535156-8.535156 0-4.710938 3.820312-8.53125 8.535156-8.53125h42.664063c4.714843 0 8.535156 3.820312 8.535156 8.53125 0 4.714844-3.820313 8.535156-8.535156 8.535156zm0 0" fill="#000000" data-original="#000000" style="" class=""/><path xmlns="http://www.w3.org/2000/svg" d="m503.464844 512h-418.132813c-4.710937 0-8.53125-3.820312-8.53125-8.535156 0-4.710938 3.820313-8.53125 8.53125-8.53125h418.132813c4.714844 0 8.535156 3.820312 8.535156 8.53125 0 4.714844-3.820312 8.535156-8.535156 8.535156zm0 0" fill="#000000" data-original="#000000" style="" class=""/><path xmlns="http://www.w3.org/2000/svg" d="m256 512c-65.949219-.074219-119.390625-53.519531-119.464844-119.464844v-230.402344c.007813-9.421874 7.644532-17.058593 17.066406-17.066406h204.796876c9.421874.007813 17.058593 7.644532 17.066406 17.066406v230.402344c-.074219 65.945313-53.515625 119.390625-119.464844 119.464844zm-102.398438-349.867188v230.402344c0 56.550782 45.84375 102.398438 102.398438 102.398438s102.398438-45.847656 102.398438-102.398438v-230.402344zm0 0" fill="#000000" data-original="#000000" style="" class=""/><path xmlns="http://www.w3.org/2000/svg" d="m341.332031 162.132812h-170.664062c-4.714844 0-8.535157-3.820312-8.535157-8.53125v-128c.015626-14.132812 11.46875-25.585937 25.601563-25.601562h136.53125c14.132813.015625 25.585937 11.46875 25.601563 25.601562v128c0 4.710938-3.820313 8.53125-8.535157 8.53125zm-162.132812-17.066406h153.601562v-119.464844c-.007812-4.710937-3.824219-8.527343-8.535156-8.535156h-136.53125c-4.710937.007813-8.527344 3.824219-8.535156 8.535156zm0 0" fill="#000000" data-original="#000000" style="" class=""/><path xmlns="http://www.w3.org/2000/svg" d="m230.398438 93.867188h-17.066407c-9.421875-.011719-17.054687-7.644532-17.066406-17.066407v-25.601562c0-4.710938 3.820313-8.53125 8.535156-8.53125h34.132813c4.710937 0 8.53125 3.820312 8.53125 8.53125v25.601562c-.007813 9.421875-7.644532 17.054688-17.066406 17.066407zm-17.066407-34.132813v17.066406h17.066407v-17.066406zm0 0" fill="#000000" data-original="#000000" style="" class=""/><path xmlns="http://www.w3.org/2000/svg" d="m230.398438 128h-17.066407c-4.710937 0-8.53125-3.820312-8.53125-8.535156 0-4.710938 3.820313-8.53125 8.53125-8.53125h17.066407c4.714843 0 8.535156 3.820312 8.535156 8.53125 0 4.714844-3.820313 8.535156-8.535156 8.535156zm0 0" fill="#000000" data-original="#000000" style="" class=""/><path xmlns="http://www.w3.org/2000/svg" d="m298.667969 93.867188h-17.066407c-9.421874-.011719-17.058593-7.644532-17.066406-17.066407v-25.601562c0-4.710938 3.820313-8.53125 8.53125-8.53125h34.132813c4.714843 0 8.535156 3.820312 8.535156 8.53125v25.601562c-.011719 9.421875-7.644531 17.054688-17.066406 17.066407zm-17.066407-34.132813v17.066406h17.066407v-17.066406zm0 0" fill="#000000" data-original="#000000" style="" class=""/><path xmlns="http://www.w3.org/2000/svg" d="m298.667969 128h-17.066407c-4.714843 0-8.535156-3.820312-8.535156-8.535156 0-4.710938 3.820313-8.53125 8.535156-8.53125h17.066407c4.710937 0 8.53125 3.820312 8.53125 8.53125 0 4.714844-3.820313 8.535156-8.53125 8.535156zm0 0" fill="#000000" data-original="#000000" style="" class=""/><path xmlns="http://www.w3.org/2000/svg" d="m196.265625 332.800781c-14.136719 0-25.597656-11.460937-25.597656-25.601562 0-14.136719 11.460937-25.597657 25.597656-25.597657 14.140625 0 25.601563 11.460938 25.601563 25.597657-.015626 14.132812-11.46875 25.585937-25.601563 25.601562zm0-34.132812c-4.710937 0-8.53125 3.820312-8.53125 8.53125 0 4.714843 3.820313 8.535156 8.53125 8.535156 4.714844 0 8.535156-3.820313 8.535156-8.535156-.007812-4.710938-3.824219-8.527344-8.535156-8.53125zm0 0" fill="#000000" data-original="#000000" style="" class=""/><path xmlns="http://www.w3.org/2000/svg" d="m315.734375 332.800781c-14.140625 0-25.601563-11.460937-25.601563-25.601562 0-14.136719 11.460938-25.597657 25.601563-25.597657 14.136719 0 25.597656 11.460938 25.597656 25.597657-.015625 14.132812-11.464843 25.585937-25.597656 25.601562zm0-34.132812c-4.714844 0-8.535156 3.820312-8.535156 8.53125 0 4.714843 3.820312 8.535156 8.535156 8.535156 4.710937 0 8.53125-3.820313 8.53125-8.535156-.003906-4.710938-3.820313-8.527344-8.53125-8.53125zm0 0" fill="#000000" data-original="#000000" style="" class=""/><path xmlns="http://www.w3.org/2000/svg" d="m256 477.867188c-42.347656 0-76.800781-39.558594-76.800781-88.179688 0-8.382812 1.046875-16.730469 3.109375-24.855469.960937-3.78125 4.367187-6.433593 8.269531-6.433593h130.84375c3.902344 0 7.308594 2.652343 8.269531 6.433593 2.0625 8.125 3.109375 16.472657 3.109375 24.855469 0 48.621094-34.453125 88.179688-76.800781 88.179688zm-58.515625-102.402344c-.808594 4.699218-1.21875 9.457031-1.21875 14.222656 0 39.210938 26.796875 71.113281 59.734375 71.113281s59.734375-31.902343 59.734375-71.113281c0-4.765625-.410156-9.523438-1.21875-14.222656zm0 0" fill="#000000" data-original="#000000" style="" class=""/><path xmlns="http://www.w3.org/2000/svg" d="m324.265625 401.066406h-136.53125c-4.714844 0-8.535156-3.820312-8.535156-8.53125 0-4.714844 3.820312-8.535156 8.535156-8.535156h136.53125c4.714844 0 8.535156 3.820312 8.535156 8.535156 0 4.710938-3.820312 8.53125-8.535156 8.53125zm0 0" fill="#000000" data-original="#000000" style="" class=""/><path xmlns="http://www.w3.org/2000/svg" d="m299.53125 459.519531c-2.972656.003907-5.726562-1.535156-7.28125-4.066406-7.746094-12.585937-21.46875-20.253906-36.25-20.253906s-28.503906 7.667969-36.25 20.253906c-2.484375 3.972656-7.707031 5.199219-11.703125 2.746094-3.992187-2.453125-5.257813-7.667969-2.839844-11.679688 10.851563-17.640625 30.082031-28.386719 50.792969-28.386719s39.941406 10.746094 50.792969 28.386719c1.613281 2.632813 1.683593 5.933594.175781 8.628907-1.503906 2.695312-4.351562 4.367187-7.4375 4.371093zm0 0" fill="#000000" data-original="#000000" style="" class=""/><path xmlns="http://www.w3.org/2000/svg" d="m179.199219 196.265625h-34.132813c-4.710937 0-8.53125-3.820313-8.53125-8.53125 0-4.714844 3.820313-8.535156 8.53125-8.535156h34.132813c4.714843 0 8.535156 3.820312 8.535156 8.535156 0 4.710937-3.820313 8.53125-8.535156 8.53125zm0 0" fill="#000000" data-original="#000000" style="" class=""/><path xmlns="http://www.w3.org/2000/svg" d="m366.933594 196.265625h-153.601563c-4.710937 0-8.53125-3.820313-8.53125-8.53125 0-4.714844 3.820313-8.535156 8.53125-8.535156h153.601563c4.710937 0 8.53125 3.820312 8.53125 8.535156 0 4.710937-3.820313 8.53125-8.53125 8.53125zm0 0" fill="#000000" data-original="#000000" style="" class=""/></g></svg>
